<svg width="148" height="148" viewBox="0 0 148 148" fill="none" xmlns="http://www.w3.org/2000/svg">
<circle cx="74" cy="74" r="73.5997" fill="#C0D9DD" stroke="#333333" stroke-width="0.800654"/>
<path d="M12.8444 43.5021L25.1022 50.5756L24.2474 52.0568L11.9896 44.9833L12.8444 43.5021Z" fill="#333333"/>
<path d="M23.751 35.6586C24.2183 35.1228 24.7287 34.7181 25.282 34.4443C25.8354 34.1705 26.4088 34.0247 27.0023 34.007C27.5958 33.9892 28.1961 34.1049 28.8032 34.3541C29.4098 34.5942 30.0002 34.9648 30.5746 35.4659C31.1538 35.9712 31.6035 36.508 31.9237 37.0763C32.2481 37.6399 32.4418 38.2168 32.5047 38.8072C32.5676 39.3976 32.501 39.9855 32.3049 40.5709C32.1039 41.152 31.7697 41.7105 31.3023 42.2463C30.8307 42.7869 30.3185 43.1986 29.7658 43.4814C29.2124 43.7551 28.639 43.9009 28.0455 43.9187C27.4521 43.9364 26.852 43.8252 26.2455 43.5851C25.6432 43.3402 25.0524 42.965 24.4732 42.4598C23.8989 41.9587 23.4495 41.4264 23.1251 40.8629C22.8001 40.2903 22.6061 39.7088 22.5431 39.1184C22.4802 38.528 22.5468 37.9401 22.743 37.3548C22.9434 36.7646 23.2794 36.1992 23.751 35.6586ZM30.2959 41.3683C30.9275 40.6443 31.1578 39.8932 30.9867 39.115C30.8108 38.3325 30.2885 37.5623 29.4197 36.8044C28.546 36.0422 27.7097 35.6271 26.9106 35.559C26.1115 35.4909 25.3962 35.8188 24.7646 36.5428C24.4445 36.9097 24.2273 37.2854 24.1128 37.67C24.0024 38.0498 23.9855 38.4345 24.062 38.8242C24.1428 39.2092 24.3169 39.5991 24.5844 39.9939C24.8513 40.3798 25.2019 40.7622 25.6363 41.1411C26.5051 41.8991 27.3391 42.3121 28.1382 42.3802C28.9366 42.4393 29.6559 42.102 30.2959 41.3683Z" fill="#333333"/>
<path d="M44.1757 19.476L46.8284 29.3563L45.6918 30.0935C45.5521 30.1842 45.3961 30.1556 45.2239 30.0077L39.8263 25.6413C39.7031 25.5456 39.588 25.4446 39.481 25.3385C39.3705 25.2269 39.2617 25.1181 39.1547 25.0119C39.208 25.1529 39.263 25.2967 39.3198 25.4431C39.3731 25.5841 39.4201 25.733 39.4607 25.8899L41.2097 32.6115C41.2799 32.8256 41.2317 32.9867 41.0651 33.0947L39.985 33.7954L32.0446 27.345L33.173 26.613C33.2859 26.5398 33.3991 26.5083 33.5127 26.5186C33.6316 26.5255 33.7307 26.5605 33.8098 26.6236L38.7826 30.8648C39.1249 31.1924 39.4345 31.5108 39.7113 31.8199C39.6447 31.6112 39.5762 31.3998 39.5061 31.1857C39.4413 30.9681 39.3775 30.7461 39.3146 30.5197L37.6096 24.1131C37.5842 24.015 37.5863 23.9182 37.6159 23.8227C37.6509 23.7236 37.7168 23.6427 37.8135 23.58L38.4423 23.1721C38.5497 23.1024 38.6558 23.0718 38.7605 23.0802C38.8653 23.0886 38.9572 23.1244 39.0363 23.1876L44.1509 27.3826C44.332 27.5323 44.506 27.6829 44.6729 27.8342C44.8398 27.9855 45.0022 28.1359 45.1603 28.2854C45.0721 28.0906 44.9893 27.8924 44.9119 27.6906C44.8364 27.48 44.7601 27.2623 44.6829 27.0375L42.8699 20.7467C42.841 20.6433 42.8467 20.5404 42.8871 20.4378C42.924 20.3299 42.9935 20.2428 43.0956 20.1766L44.1757 19.476Z" fill="#333333"/>
<path d="M68.0211 14.5561C67.9814 14.6336 67.9392 14.6953 67.8945 14.7412C67.8498 14.7871 67.7832 14.817 67.6946 14.8308C67.5996 14.8457 67.4893 14.824 67.3635 14.7659C67.2367 14.7015 67.0805 14.6351 66.8948 14.5669C66.7154 14.4978 66.4964 14.4445 66.2377 14.4072C65.9843 14.3625 65.6805 14.3679 65.3261 14.4234C64.8515 14.4976 64.4472 14.6484 64.1132 14.8757C63.7782 15.0966 63.5121 15.3846 63.3148 15.7396C63.1238 16.0937 63.0001 16.5052 62.9439 16.9743C62.8939 17.4424 62.9125 17.9549 62.9996 18.5118C63.0907 19.094 63.2383 19.6026 63.4425 20.0374C63.6457 20.4659 63.8917 20.8164 64.1807 21.0889C64.475 21.354 64.8059 21.5422 65.1734 21.6532C65.5462 21.757 65.9478 21.7752 66.3781 21.7079C66.7894 21.6436 67.1206 21.5431 67.3715 21.4066C67.6214 21.2638 67.8224 21.1189 67.9745 20.9719C68.1329 20.824 68.2616 20.6936 68.3607 20.5809C68.4651 20.4608 68.5742 20.3919 68.6881 20.3741C68.8273 20.3523 68.9433 20.3893 69.0361 20.485L69.6072 21.0277C69.439 21.3198 69.2363 21.5785 68.9993 21.8035C68.7622 22.0286 68.4985 22.2287 68.2082 22.4038C67.9233 22.5716 67.6175 22.7101 67.2911 22.8196C66.9646 22.929 66.6273 23.0109 66.2792 23.0654C65.6781 23.1594 65.1007 23.1363 64.5471 22.996C63.9999 22.8547 63.5037 22.6049 63.0587 22.2466C62.6127 21.882 62.2341 21.4096 61.9229 20.8294C61.6117 20.2492 61.3947 19.5668 61.272 18.7821C61.1601 18.067 61.1548 17.3903 61.2559 16.7521C61.3634 16.113 61.5728 15.5453 61.8842 15.0493C62.2009 14.5459 62.6184 14.1273 63.1367 13.7934C63.6613 13.4585 64.2875 13.2341 65.0153 13.1202C65.6924 13.0143 66.3046 13.032 66.8518 13.1733C67.4044 13.3073 67.9112 13.5425 68.3722 13.8788L68.0211 14.5561Z" fill="#333333"/>
<path d="M80.7604 18.166C79.9725 18.1407 79.2973 18.1611 78.7345 18.2274C78.1786 18.2877 77.7197 18.3864 77.3578 18.5234C77.0023 18.6608 76.7376 18.8331 76.5638 19.04C76.3963 19.2474 76.3039 19.4854 76.2865 19.7538C76.2699 20.0095 76.2972 20.2327 76.3683 20.4234C76.4394 20.6142 76.5413 20.7748 76.6741 20.9054C76.8136 21.0299 76.9774 21.1272 77.1655 21.1971C77.3603 21.2611 77.5696 21.3003 77.7933 21.3148C78.0937 21.3343 78.3704 21.3233 78.6234 21.2819C78.8769 21.2341 79.1159 21.1598 79.3407 21.0588C79.5719 20.9582 79.7917 20.8344 80.0002 20.6875C80.2151 20.5409 80.425 20.3716 80.63 20.1795L80.7604 18.166ZM75.5044 13.8397C76.0749 13.3568 76.6784 13.0075 77.3149 12.792C77.9515 12.5765 78.6469 12.4931 79.4011 12.5419C79.9444 12.5771 80.4212 12.6978 80.8315 12.9041C81.2418 13.1104 81.5804 13.3827 81.8473 13.7209C82.1143 14.0591 82.3065 14.4599 82.4242 14.9232C82.5418 15.3866 82.583 15.8899 82.5479 16.4332L82.1456 22.6461L81.3882 22.597C81.222 22.5863 81.0958 22.5524 81.0096 22.4955C80.9239 22.4322 80.8606 22.3189 80.8198 22.1558L80.6876 21.223C80.4166 21.4429 80.1537 21.6377 79.8988 21.8074C79.6443 21.9706 79.3787 22.1075 79.102 22.2179C78.8257 22.322 78.532 22.396 78.2211 22.4401C77.9161 22.491 77.5783 22.5044 77.2075 22.4804C76.8304 22.456 76.479 22.3819 76.1532 22.2581C75.8279 22.1279 75.5474 21.9493 75.3118 21.7222C75.0826 21.4955 74.9048 21.2177 74.7785 20.8885C74.6589 20.5535 74.6135 20.1654 74.642 19.7244C74.6669 19.3408 74.7961 18.9801 75.0298 18.6423C75.2639 18.298 75.6264 18.0037 76.1172 17.7595C76.6079 17.5153 77.2392 17.3315 78.011 17.2081C78.7833 17.0784 79.7231 17.0366 80.8305 17.0826L80.8796 16.3252C80.9284 15.5709 80.8023 14.9915 80.5011 14.5869C80.2004 14.1759 79.7368 13.9501 79.1104 13.9095C78.6885 13.8822 78.3303 13.9136 78.0356 14.0036C77.7477 14.0877 77.494 14.19 77.2744 14.3106C77.0615 14.4252 76.8749 14.5318 76.7145 14.6306C76.5608 14.7233 76.4105 14.7649 76.2635 14.7554C76.1485 14.748 76.0512 14.7128 75.9719 14.6499C75.8929 14.5806 75.8276 14.4993 75.7758 14.4061L75.5044 13.8397Z" fill="#333333"/>
<path d="M93.0899 10.4899L89.6477 24.2172L87.9889 23.8013L91.4311 10.0739L93.0899 10.4899Z" fill="#333333"/>
<path d="M103.623 18.8274C104.266 19.13 104.795 19.5099 105.21 19.9669C105.625 20.424 105.923 20.9355 106.102 21.5014C106.282 22.0673 106.335 22.6763 106.262 23.3285C106.198 23.9776 106.003 24.6471 105.679 25.3368C105.352 26.0323 104.959 26.612 104.5 27.0757C104.047 27.5421 103.545 27.8866 102.994 28.1089C102.444 28.3313 101.86 28.4284 101.244 28.4002C100.63 28.3663 100.001 28.198 99.3576 27.8954C98.7084 27.59 98.1721 27.2103 97.7486 26.7563C97.3336 26.2992 97.0362 25.7877 96.8564 25.2219C96.6767 24.656 96.6191 24.0485 96.6838 23.3993C96.7542 22.753 96.953 22.082 97.2802 21.3865C97.6046 20.6967 97.9933 20.1186 98.4463 19.6522C98.9078 19.1827 99.4138 18.8367 99.9644 18.6143C100.515 18.3919 101.099 18.2948 101.715 18.323C102.338 18.3539 102.974 18.5221 103.623 18.8274ZM99.926 26.6869C100.795 27.0958 101.581 27.1113 102.282 26.7335C102.987 26.3498 103.584 25.6363 104.075 24.593C104.568 23.544 104.738 22.6258 104.585 21.8387C104.431 21.0515 103.92 20.4535 103.05 20.0446C102.61 19.8374 102.189 19.7314 101.788 19.7267C101.392 19.7248 101.018 19.814 100.664 19.9944C100.316 20.1775 99.9884 20.4519 99.682 20.8174C99.3841 21.1798 99.1125 21.6219 98.8671 22.1435C98.3764 23.1868 98.2078 24.102 98.3614 24.8892C98.5234 25.6733 99.045 26.2725 99.926 26.6869Z" fill="#333333"/>
<path d="M114.272 27.6744C114.921 27.3321 115.536 27.1496 116.118 27.127C116.704 27.0993 117.254 27.2819 117.768 27.675C117.93 27.7995 118.072 27.936 118.192 28.0845C118.318 28.2369 118.41 28.396 118.468 28.5618L117.593 29.5008C117.465 29.6047 117.34 29.6099 117.218 29.5165C117.147 29.462 117.054 29.3669 116.94 29.2313C116.826 29.0957 116.682 28.9618 116.509 28.8295C116.265 28.6427 116.019 28.5109 115.771 28.4343C115.529 28.3615 115.277 28.338 115.015 28.3637C114.762 28.3881 114.495 28.458 114.214 28.5732C113.941 28.6872 113.655 28.8394 113.356 29.0301L109.62 33.9139L108.254 32.869L114.167 25.1387L114.946 25.7342C115.093 25.847 115.174 25.9528 115.187 26.0516C115.2 26.1504 115.164 26.2762 115.08 26.4292L114.272 27.6744Z" fill="#333333"/>
<path d="M124.558 34.3587L117.478 41.0365L116.304 39.7924L123.385 33.1146L124.558 34.3587ZM127.032 32.528C126.91 32.6423 126.772 32.7243 126.617 32.7741C126.47 32.8242 126.315 32.8469 126.152 32.8421C125.998 32.8376 125.845 32.8014 125.693 32.7335C125.546 32.6703 125.415 32.5781 125.3 32.457C125.186 32.3358 125.102 32.1997 125.047 32.0486C124.997 31.9021 124.974 31.7519 124.979 31.598C124.988 31.4396 125.022 31.2888 125.081 31.1456C125.144 30.9979 125.236 30.8669 125.357 30.7527C125.478 30.6384 125.614 30.554 125.766 30.4995C125.921 30.4407 126.076 30.4135 126.23 30.418C126.389 30.4181 126.54 30.4474 126.683 30.506C126.831 30.5692 126.962 30.6614 127.076 30.7826C127.19 30.9037 127.274 31.0399 127.329 31.191C127.388 31.3468 127.413 31.5038 127.403 31.6621C127.403 31.8207 127.369 31.976 127.302 32.1281C127.243 32.2804 127.153 32.4137 127.032 32.528Z" fill="#333333"/>
<path d="M130.069 48.1242C130.403 47.9104 130.677 47.6669 130.89 47.3939C131.112 47.1227 131.265 46.8316 131.347 46.5205C131.438 46.2113 131.455 45.8927 131.397 45.5647C131.345 45.2332 131.214 44.9028 131.004 44.5736C130.562 43.8827 130.01 43.4642 129.346 43.3181C128.691 43.174 127.977 43.281 127.202 43.6391L130.069 48.1242ZM126.968 51.7475C126.638 51.7074 126.313 51.6149 125.993 51.4701C125.677 51.3219 125.377 51.1375 125.092 50.917C124.81 50.7018 124.548 50.4587 124.306 50.1875C124.059 49.9197 123.841 49.6374 123.651 49.3406C123.289 48.7738 123.049 48.19 122.931 47.5889C122.822 46.9897 122.838 46.3975 122.981 45.8121C123.133 45.2287 123.419 44.6657 123.84 44.123C124.261 43.5804 124.825 43.0831 125.532 42.6313C126.104 42.2657 126.694 42.0106 127.301 41.8659C127.911 41.7267 128.502 41.7062 129.074 41.8043C129.652 41.899 130.195 42.1183 130.703 42.4622C131.217 42.8027 131.664 43.2697 132.043 43.8634C132.357 44.3546 132.563 44.8614 132.662 45.3839C132.769 45.9084 132.762 46.4218 132.642 46.9241C132.531 47.4283 132.302 47.9134 131.953 48.3793C131.61 48.8417 131.147 49.2592 130.564 49.6317C130.338 49.7765 130.171 49.8488 130.065 49.8485C129.958 49.8483 129.861 49.7806 129.775 49.6457L126.273 44.1648C125.765 44.5121 125.359 44.8703 125.055 45.2393C124.755 45.6137 124.547 45.9971 124.433 46.3893C124.324 46.7781 124.305 47.1704 124.376 47.5662C124.452 47.9586 124.614 48.3491 124.862 48.7377C125.093 49.0993 125.332 49.3838 125.579 49.5911C125.834 49.8004 126.071 49.9684 126.288 50.0952C126.506 50.2221 126.695 50.3217 126.856 50.3941C127.025 50.4684 127.139 50.5515 127.197 50.6432C127.273 50.762 127.286 50.883 127.236 51.0064L126.968 51.7475Z" fill="#333333"/>
<path d="M135.81 103.975L123.553 96.9015L124.407 95.4202L136.665 102.494L135.81 103.975Z" fill="#333333"/>
<path d="M124.904 111.818C124.436 112.354 123.926 112.759 123.373 113.033C122.819 113.307 122.246 113.452 121.652 113.47C121.059 113.488 120.459 113.372 119.852 113.123C119.245 112.883 118.655 112.512 118.08 112.011C117.501 111.506 117.051 110.969 116.731 110.401C116.407 109.837 116.213 109.26 116.15 108.67C116.087 108.079 116.154 107.492 116.35 106.906C116.551 106.325 116.885 105.767 117.353 105.231C117.824 104.69 118.336 104.278 118.889 103.996C119.442 103.722 120.016 103.576 120.609 103.558C121.203 103.541 121.803 103.652 122.409 103.892C123.012 104.137 123.602 104.512 124.182 105.017C124.756 105.518 125.205 106.051 125.53 106.614C125.855 107.187 126.049 107.768 126.112 108.359C126.175 108.949 126.108 109.537 125.912 110.122C125.711 110.712 125.375 111.278 124.904 111.818ZM118.359 106.109C117.727 106.833 117.497 107.584 117.668 108.362C117.844 109.145 118.366 109.915 119.235 110.673C120.109 111.435 120.945 111.85 121.744 111.918C122.543 111.986 123.259 111.658 123.89 110.934C124.21 110.567 124.428 110.192 124.542 109.807C124.652 109.427 124.669 109.043 124.593 108.653C124.512 108.268 124.338 107.878 124.07 107.483C123.804 107.097 123.453 106.715 123.018 106.336C122.15 105.578 121.316 105.165 120.517 105.097C119.718 105.038 118.999 105.375 118.359 106.109Z" fill="#333333"/>
<path d="M104.479 128.001L101.826 118.121L102.963 117.384C103.103 117.293 103.259 117.321 103.431 117.469L108.828 121.836C108.952 121.931 109.067 122.032 109.174 122.139C109.284 122.25 109.393 122.359 109.5 122.465C109.447 122.324 109.392 122.18 109.335 122.034C109.282 121.893 109.235 121.744 109.194 121.587L107.445 114.866C107.375 114.651 107.423 114.49 107.59 114.382L108.67 113.682L116.61 120.132L115.482 120.864C115.369 120.937 115.256 120.969 115.142 120.958C115.023 120.952 114.924 120.917 114.845 120.853L109.872 116.612C109.53 116.285 109.22 115.966 108.943 115.657C109.01 115.866 109.079 116.077 109.149 116.291C109.213 116.509 109.277 116.731 109.34 116.957L111.045 123.364C111.071 123.462 111.068 123.559 111.039 123.654C111.004 123.753 110.938 123.834 110.841 123.897L110.213 124.305C110.105 124.375 109.999 124.405 109.894 124.397C109.79 124.388 109.698 124.353 109.618 124.289L104.504 120.094C104.323 119.945 104.149 119.794 103.982 119.643C103.815 119.492 103.653 119.341 103.495 119.192C103.583 119.386 103.665 119.585 103.743 119.786C103.818 119.997 103.895 120.215 103.972 120.44L105.785 126.73C105.814 126.834 105.808 126.937 105.768 127.039C105.731 127.147 105.661 127.234 105.559 127.3L104.479 128.001Z" fill="#333333"/>
<path d="M80.6337 132.921C80.6734 132.843 80.7156 132.782 80.7603 132.736C80.805 132.69 80.8716 132.66 80.9602 132.646C81.0551 132.631 81.1655 132.653 81.2913 132.711C81.4181 132.776 81.5743 132.842 81.76 132.91C81.9394 132.979 82.1584 133.033 82.4171 133.07C82.6705 133.115 82.9743 133.109 83.3287 133.054C83.8033 132.979 84.2076 132.829 84.5416 132.601C84.8766 132.38 85.1427 132.092 85.34 131.737C85.531 131.383 85.6546 130.972 85.7109 130.503C85.7609 130.035 85.7423 129.522 85.6552 128.965C85.5641 128.383 85.4165 127.874 85.2123 127.44C85.0091 127.011 84.7631 126.661 84.4741 126.388C84.1798 126.123 83.8489 125.935 83.4814 125.824C83.1086 125.72 82.707 125.702 82.2767 125.769C81.8654 125.833 81.5342 125.934 81.2833 126.07C81.0333 126.213 80.8323 126.358 80.6803 126.505C80.5219 126.653 80.3932 126.783 80.2941 126.896C80.1897 127.016 80.0806 127.085 79.9667 127.103C79.8274 127.125 79.7114 127.088 79.6187 126.992L79.0475 126.449C79.2158 126.157 79.4184 125.899 79.6555 125.674C79.8926 125.448 80.1563 125.248 80.4466 125.073C80.7315 124.905 81.0372 124.767 81.3637 124.657C81.6902 124.548 82.0275 124.466 82.3755 124.412C82.9767 124.318 83.5541 124.341 84.1077 124.481C84.6549 124.622 85.151 124.872 85.5961 125.23C86.0421 125.595 86.4207 126.067 86.7319 126.648C87.0431 127.228 87.26 127.91 87.3828 128.695C87.4947 129.41 87.5 130.087 87.3989 130.725C87.2914 131.364 87.082 131.932 86.7706 132.428C86.4538 132.931 86.0363 133.35 85.5181 133.684C84.9935 134.019 84.3673 134.243 83.6395 134.357C82.9624 134.463 82.3502 134.445 81.803 134.304C81.2504 134.17 80.7436 133.935 80.2825 133.598L80.6337 132.921Z" fill="#333333"/>
<path d="M67.8944 129.311C68.6822 129.336 69.3575 129.316 69.9202 129.25C70.4761 129.189 70.935 129.091 71.2969 128.954C71.6525 128.816 71.9171 128.644 72.091 128.437C72.2585 128.23 72.3509 127.992 72.3683 127.723C72.3848 127.468 72.3576 127.244 72.2865 127.054C72.2154 126.863 72.1135 126.702 71.9807 126.572C71.8411 126.447 71.6773 126.35 71.4893 126.28C71.2945 126.216 71.0852 126.177 70.8615 126.162C70.5611 126.143 70.2844 126.154 70.0314 126.195C69.7779 126.243 69.5388 126.317 69.3141 126.418C69.0829 126.519 68.8631 126.643 68.6546 126.79C68.4397 126.936 68.2298 127.105 68.0248 127.298L67.8944 129.311ZM73.1504 133.637C72.5799 134.12 71.9764 134.47 71.3399 134.685C70.7033 134.901 70.0079 134.984 69.2537 134.935C68.7104 134.9 68.2336 134.779 67.8233 134.573C67.413 134.367 67.0744 134.094 66.8075 133.756C66.5405 133.418 66.3482 133.017 66.2306 132.554C66.113 132.09 66.0718 131.587 66.1069 131.044L66.5092 124.831L67.2666 124.88C67.4328 124.891 67.559 124.925 67.6452 124.982C67.7309 125.045 67.7942 125.158 67.835 125.321L67.9672 126.254C68.2381 126.034 68.5011 125.839 68.756 125.67C69.0104 125.506 69.2761 125.37 69.5528 125.259C69.8291 125.155 70.1227 125.081 70.4337 125.037C70.7387 124.986 71.0765 124.973 71.4472 124.997C71.8244 125.021 72.1758 125.095 72.5015 125.219C72.8269 125.349 73.1074 125.528 73.343 125.755C73.5722 125.982 73.75 126.259 73.8763 126.589C73.9958 126.924 74.0413 127.312 74.0128 127.753C73.9879 128.136 73.8587 128.497 73.625 128.835C73.3909 129.179 73.0284 129.473 72.5376 129.718C72.0468 129.962 71.4155 130.146 70.6437 130.269C69.8715 130.399 68.9317 130.44 67.8242 130.394L67.7752 131.152C67.7264 131.906 67.8525 132.486 68.1537 132.89C68.4544 133.301 68.918 133.527 69.5444 133.568C69.9663 133.595 70.3245 133.563 70.6192 133.473C70.9071 133.389 71.1608 133.287 71.3804 133.166C71.5932 133.052 71.7799 132.945 71.9403 132.846C72.0939 132.754 72.2443 132.712 72.3913 132.722C72.5063 132.729 72.6035 132.764 72.6829 132.827C72.7619 132.896 72.8272 132.978 72.8789 133.071L73.1504 133.637Z" fill="#333333"/>
<path d="M55.5648 136.987L59.0071 123.26L60.6659 123.676L57.2237 137.403L55.5648 136.987Z" fill="#333333"/>
<path d="M45.0315 128.65C44.3882 128.347 43.859 127.967 43.444 127.51C43.029 127.053 42.7317 126.542 42.5519 125.976C42.3721 125.41 42.3188 124.801 42.392 124.149C42.4566 123.499 42.6512 122.83 42.9756 122.14C43.3028 121.445 43.6957 120.865 44.1545 120.401C44.6075 119.935 45.1093 119.59 45.6598 119.368C46.2103 119.146 46.794 119.049 47.4107 119.077C48.0247 119.111 48.6534 119.279 49.2967 119.582C49.9459 119.887 50.4822 120.267 50.9057 120.721C51.3207 121.178 51.6181 121.689 51.7979 122.255C51.9776 122.821 52.0352 123.429 51.9705 124.078C51.9001 124.724 51.7013 125.395 51.3741 126.091C51.0497 126.78 50.661 127.358 50.208 127.825C49.7465 128.294 49.2405 128.64 48.6899 128.863C48.1394 129.085 47.5558 129.182 46.939 129.154C46.3165 129.123 45.6807 128.955 45.0315 128.65ZM48.7283 120.79C47.8589 120.381 47.0734 120.366 46.3719 120.744C45.6676 121.127 45.0701 121.841 44.5794 122.884C44.086 123.933 43.916 124.851 44.0696 125.638C44.2231 126.426 44.7346 127.024 45.604 127.432C46.0445 127.64 46.4654 127.746 46.8667 127.75C47.2621 127.752 47.6368 127.663 47.9906 127.483C48.3387 127.3 48.6659 127.025 48.9723 126.66C49.2702 126.297 49.5418 125.855 49.7872 125.334C50.2779 124.29 50.4465 123.375 50.2929 122.588C50.1309 121.804 49.6093 121.205 48.7283 120.79Z" fill="#333333"/>
<path d="M34.3822 119.803C33.7332 120.145 33.1179 120.327 32.536 120.35C31.9503 120.378 31.4005 120.195 30.8867 119.802C30.7239 119.678 30.5824 119.541 30.4621 119.393C30.3367 119.24 30.2447 119.081 30.186 118.915L31.0616 117.976C31.1895 117.872 31.3144 117.867 31.4365 117.961C31.5077 118.015 31.6004 118.11 31.7144 118.246C31.8284 118.381 31.9719 118.515 32.1448 118.648C32.389 118.834 32.635 118.966 32.8828 119.043C33.1255 119.116 33.3777 119.139 33.6393 119.113C33.8919 119.089 34.159 119.019 34.4407 118.904C34.7134 118.79 34.9992 118.638 35.2983 118.447L39.0343 113.563L40.4003 114.608L34.4868 122.338L33.7084 121.743C33.5609 121.63 33.4806 121.524 33.4674 121.425C33.4542 121.327 33.49 121.201 33.5748 121.048L34.3822 119.803Z" fill="#333333"/>
<path d="M24.0965 113.118L31.1769 106.441L32.3503 107.685L25.2699 114.362L24.0965 113.118ZM21.6233 114.949C21.7444 114.835 21.8827 114.753 22.0383 114.703C22.1847 114.653 22.3394 114.63 22.5024 114.635C22.6564 114.639 22.8094 114.676 22.9614 114.744C23.1091 114.807 23.2401 114.899 23.3543 115.02C23.4686 115.141 23.553 115.277 23.6075 115.428C23.6575 115.575 23.6803 115.725 23.6758 115.879C23.6667 116.037 23.6328 116.188 23.5742 116.331C23.511 116.479 23.4188 116.61 23.2977 116.724C23.1765 116.839 23.0404 116.923 22.8892 116.978C22.7335 117.036 22.5786 117.064 22.4247 117.059C22.2661 117.059 22.1152 117.03 21.9719 116.971C21.8242 116.908 21.6932 116.816 21.579 116.694C21.4647 116.573 21.3803 116.437 21.3259 116.286C21.267 116.13 21.2421 115.973 21.2513 115.815C21.2514 115.656 21.2854 115.501 21.3533 115.349C21.4121 115.197 21.5021 115.063 21.6233 114.949Z" fill="#333333"/>
<path d="M18.5862 99.3528C18.2516 99.5667 17.9777 99.8101 17.7645 100.083C17.5425 100.354 17.3902 100.645 17.3078 100.957C17.2165 101.266 17.1997 101.584 17.2573 101.912C17.3095 102.244 17.4408 102.574 17.6512 102.903C18.0927 103.594 18.6452 104.013 19.3087 104.159C19.9633 104.303 20.6779 104.196 21.4524 103.838L18.5862 99.3528ZM21.6867 95.7295C22.0164 95.7697 22.3416 95.8621 22.6622 96.0069C22.9774 96.1552 23.2776 96.3396 23.563 96.5601C23.8449 96.7752 24.1067 97.0184 24.3484 97.2896C24.5955 97.5573 24.814 97.8396 25.0037 98.1365C25.3658 98.7032 25.6059 99.2871 25.724 99.8882C25.8332 100.487 25.8164 101.08 25.6736 101.665C25.5219 102.248 25.2356 102.811 24.8147 103.354C24.3937 103.897 23.8297 104.394 23.1227 104.846C22.5506 105.211 21.9611 105.466 21.3541 105.611C20.7438 105.75 20.1526 105.771 19.5806 105.673C19.0031 105.578 18.4601 105.359 17.9515 105.015C17.4375 104.674 16.9908 104.207 16.6114 103.614C16.2975 103.122 16.0914 102.616 15.9932 102.093C15.8861 101.569 15.8924 101.055 16.0123 100.553C16.1234 100.049 16.3531 99.5637 16.7015 99.0978C17.0445 98.6354 17.5074 98.2179 18.0903 97.8454C18.317 97.7005 18.4837 97.6282 18.5903 97.6285C18.6969 97.6288 18.7933 97.6964 18.8795 97.8313L22.3821 103.312C22.8899 102.965 23.2957 102.607 23.5996 102.238C23.9 101.863 24.1074 101.48 24.2216 101.088C24.3304 100.699 24.3495 100.307 24.279 99.9108C24.2031 99.5185 24.041 99.128 23.7926 98.7394C23.5615 98.3778 23.3227 98.0933 23.0762 97.8859C22.8208 97.6767 22.5842 97.5086 22.3664 97.3818C22.1485 97.255 21.9594 97.1554 21.7991 97.083C21.63 97.0086 21.5161 96.9256 21.4575 96.8338C21.3816 96.7151 21.3688 96.594 21.4192 96.4706L21.6867 95.7295Z" fill="#333333"/>
<g clip-path="url(#clip0_832_1769)">
<path d="M73.9998 86.4667L72.0665 84.7067C65.1998 78.48 60.6665 74.3733 60.6665 69.3333C60.6665 65.2267 63.8932 62 67.9998 62C70.3198 62 72.5465 63.08 73.9998 64.7867C75.4532 63.08 77.6798 62 79.9998 62C84.1065 62 87.3332 65.2267 87.3332 69.3333C87.3332 74.3733 82.7998 78.48 75.9332 84.72L73.9998 86.4667Z" fill="#333333"/>
</g>
<defs>
<clipPath id="clip0_832_1769">
<rect width="32" height="32" fill="white" transform="translate(58 58)"/>
</clipPath>
</defs>
</svg>
